<svg width="307" height="166" viewBox="0 0 307 166" fill="none" xmlns="http://www.w3.org/2000/svg">
    <path
        d="M66 165H65.3125C65.3125 147.154 50.8457 132.687 33 132.687C15.1543 132.687 0.6875 147.154 0.6875 165H0C2.7158e-07 146.775 14.7746 132 33 132C51.2254 132 66 146.775 66 165Z"
        fill="#3F3D56" />
    <path
        d="M307 165H306.312C306.312 147.154 291.846 132.688 274 132.688C256.154 132.688 241.688 147.154 241.688 165H241C241 146.775 255.775 132 274 132C292.225 132 307 146.775 307 165Z"
        fill="#3F3D56" />
    <path
        d="M225 86H224.31C224.31 52.751 197.704 25.7011 165 25.7011C132.296 25.7011 105.69 52.751 105.69 86H105C105 52.3645 131.916 25 165 25C198.084 25 225 52.3645 225 86Z"
        fill="#3F3D56" />
    <circle cx="50" cy="14" r="14" fill="#f76b0b" />
    <path d="M53 107.963L76.515 80H122.747L151 107.478L150.429 107.845H150.633V165H53.0322V107.845L53 107.963Z"
        fill="#F2F2F2" />
    <rect x="73" y="96" width="5" height="18" transform="rotate(-180 73 96)" fill="#F2F2F2" />
    <path d="M76.0706 80L105 113.788V165H53V107.361L76.0706 80Z" fill="url(#paint0_linear_0_8305)" />
    <rect x="88" y="120" width="11" height="11" fill="#3F3D56" />
    <rect x="88" y="135" width="11" height="11" fill="#3F3D56" />
    <rect x="88" y="120" width="11" height="11" fill="white" />
    <rect x="88" y="135" width="11" height="11" fill="white" />
    <rect x="73" y="120" width="11" height="11" fill="#3F3D56" />
    <rect x="73" y="135" width="11" height="11" fill="#3F3D56" />
    <rect x="73" y="120" width="11" height="11" fill="white" />
    <rect x="73" y="135" width="11" height="11" fill="white" />
    <rect x="58" y="120" width="11" height="11" fill="#3F3D56" />
    <rect x="58" y="135" width="11" height="11" fill="#3F3D56" />
    <rect x="58" y="120" width="11" height="11" fill="white" />
    <rect x="58" y="135" width="11" height="11" fill="white" />
    <rect x="168" y="14" width="4" height="13" fill="#E6E6E6" />
    <rect x="131" y="25" width="41" height="140" fill="#E6E6E6" />
    <rect x="172" y="25" width="17" height="140" fill="#F2F2F2" />
    <rect x="138" y="37" width="6" height="6" fill="white" />
    <rect x="149" y="37" width="6" height="6" fill="white" />
    <rect x="158" y="37" width="6" height="6" fill="white" />
    <rect x="138" y="51" width="6" height="6" fill="white" />
    <rect x="149" y="51" width="6" height="6" fill="white" />
    <rect x="158" y="51" width="6" height="6" fill="white" />
    <rect x="138" y="65" width="6" height="6" fill="white" />
    <rect x="149" y="65" width="6" height="6" fill="white" />
    <rect x="158" y="65" width="6" height="6" fill="white" />
    <rect x="139" y="80" width="6" height="6" fill="white" />
    <rect x="149" y="80" width="6" height="6" fill="white" />
    <rect x="160" y="80" width="6" height="6" fill="white" />
    <rect x="139" y="94" width="6" height="6" fill="white" />
    <rect x="149" y="94" width="6" height="6" fill="white" />
    <rect x="160" y="94" width="6" height="6" fill="white" />
    <rect x="139" y="109" width="6" height="6" fill="white" />
    <rect x="150" y="109" width="6" height="6" fill="white" />
    <rect x="160" y="109" width="6" height="6" fill="white" />
    <rect x="139" y="123" width="6" height="6" fill="white" />
    <rect x="150" y="123" width="6" height="6" fill="white" />
    <rect x="160" y="123" width="6" height="6" fill="white" />
    <rect x="140" y="137" width="6" height="6" fill="white" />
    <rect x="150" y="137" width="6" height="6" fill="white" />
    <rect x="150" y="153" width="6" height="12" fill="white" />
    <rect x="161" y="137" width="6" height="6" fill="white" />
    <rect x="172" y="14" width="2" height="12" fill="#F2F2F2" />
    <rect x="220" y="76" width="4" height="7" fill="#E6E6E6" />
    <rect x="183" y="82" width="41" height="83" fill="#E6E6E6" />
    <rect x="224" y="82" width="17" height="83" fill="#F2F2F2" />
    <rect x="191" y="94" width="6" height="6" fill="white" />
    <rect x="201" y="94" width="6" height="6" fill="white" />
    <rect x="212" y="94" width="6" height="6" fill="white" />
    <rect x="191" y="109" width="6" height="6" fill="white" />
    <rect x="201" y="109" width="6" height="6" fill="white" />
    <rect x="212" y="109" width="6" height="6" fill="white" />
    <rect x="191" y="123" width="6" height="6" fill="white" />
    <rect x="202" y="123" width="6" height="6" fill="white" />
    <rect x="212" y="123" width="6" height="6" fill="white" />
    <rect x="192" y="137" width="6" height="6" fill="white" />
    <rect x="202" y="137" width="6" height="6" fill="white" />
    <rect x="202" y="153" width="6" height="12" fill="white" />
    <rect x="212" y="137" width="6" height="6" fill="white" />
    <rect x="224" y="76" width="2" height="7" fill="#F2F2F2" />
    <circle cx="253" cy="140" r="9" fill="#f76b0b" />
    <path opacity="0.2"
        d="M260.624 134C262.43 138.059 260.908 142.777 257.029 145.144C253.15 147.511 248.057 146.829 245 143.533C246.46 146.814 249.799 148.958 253.513 148.999C257.227 149.041 260.617 146.973 262.157 143.726C263.696 140.478 263.095 136.664 260.624 134H260.624Z"
        fill="black" />
    <path d="M253.5 139H253.526L254 165H253L253.5 139Z" fill="#3F3D56" />
    <path d="M255.005 153.564L255.212 153.959L253.723 154.744L253.515 154.349L255.005 153.564Z" fill="#3F3D56" />
    <circle cx="280" cy="127" r="14" fill="#C6D8D3" />
    <path opacity="0.2"
        d="M289.7 118C292.209 123.953 290.095 130.874 284.707 134.345C279.32 137.816 272.246 136.816 268 131.981C270.028 136.793 274.665 139.938 279.823 139.999C284.982 140.06 289.69 137.027 291.829 132.264C293.967 127.501 293.132 121.907 289.7 118Z"
        fill="black" />
    <path d="M279.5 127H279.526L280 166H279L279.5 127Z" fill="#3F3D56" />
    <path d="M282.258 147.293L282.574 147.893L280.309 149.088L279.993 148.487L282.258 147.293Z" fill="#3F3D56" />
    <circle cx="9" cy="140" r="9" fill="#C6D8D3" />
    <path opacity="0.2"
        d="M15.6239 133C17.4303 137.059 15.9083 141.777 12.0292 144.144C8.15006 146.511 3.05693 145.829 0 142.533C1.45998 145.814 4.79852 147.958 8.51284 147.999C12.2272 148.041 15.617 145.973 17.1565 142.726C18.6961 139.478 18.095 135.664 15.6239 133H15.6239Z"
        fill="black" />
    <path d="M9.5 139H9.52649L10 165H9L9.5 139Z" fill="#3F3D56" />
    <path d="M10.684 153.218L10.8916 153.612L9.4019 154.398L9.1943 154.003L10.684 153.218Z" fill="#3F3D56" />
    <path
        d="M209.194 13.1785L212 11.0301C209.82 10.7999 208.924 11.9379 208.557 12.8387C206.854 12.1617 205 13.0489 205 13.0489L210.615 15C210.332 14.2758 209.839 13.6439 209.194 13.1785Z"
        fill="#3F3D56" />
    <path
        d="M50.1936 26.1785L53 24.0301C50.8198 23.7999 49.924 24.9379 49.5574 25.8387C47.8542 25.1617 46 26.0489 46 26.0489L51.6151 28C51.3318 27.2758 50.8387 26.6439 50.1936 26.1785Z"
        fill="#3F3D56" />
    <path
        d="M258.194 38.1785L261 36.0301C258.82 35.7999 257.924 36.9379 257.557 37.8387C255.854 37.1617 254 38.0489 254 38.0489L259.615 40C259.332 39.2758 258.839 38.6439 258.194 38.1785Z"
        fill="#3F3D56" />
    <path
        d="M76.1936 18.1785L79 16.0301C76.8198 15.7999 75.924 16.9379 75.5574 17.8387C73.8542 17.1617 72 18.0489 72 18.0489L77.6151 20C77.3318 19.2758 76.8387 18.6439 76.1936 18.1785Z"
        fill="#3F3D56" />
    <path
        d="M82.1936 47.1785L85 45.0301C82.8198 44.7999 81.924 45.9379 81.5574 46.8387C79.8542 46.1617 78 47.0489 78 47.0489L83.6151 49C83.3318 48.2758 82.8387 47.6439 82.1936 47.1785Z"
        fill="#3F3D56" />
    <path
        d="M206.194 61.1785L209 59.0301C206.82 58.7999 205.924 59.9379 205.557 60.8387C203.854 60.1617 202 61.0489 202 61.0489L207.615 63C207.332 62.2758 206.839 61.6439 206.194 61.1785Z"
        fill="#3F3D56" />
    <path d="M36 159H15V159.667H18.275V166H18.9524V159.667H31.7089V166H32.3863V159.667H36V159Z" fill="#3F3D56" />
    <path
        d="M59.1427 160.667C58.2905 160.667 57.4535 160.882 56.7158 161.29C55.1853 159.965 52.9827 159.628 51.0971 160.431C49.2116 161.233 47.9975 163.025 48 165H64C63.8191 162.559 61.6986 160.668 59.1427 160.667Z"
        fill="#3F3D56" />
    <path
        d="M141.143 160.667C140.291 160.667 139.453 160.882 138.716 161.29C137.185 159.965 134.983 159.628 133.097 160.431C131.212 161.233 129.997 163.025 130 165H146C145.819 162.559 143.699 160.668 141.143 160.667Z"
        fill="#3F3D56" />
    <path
        d="M195.143 160.667C194.291 160.667 193.453 160.882 192.716 161.29C191.185 159.965 188.983 159.628 187.097 160.431C185.212 161.233 183.997 163.025 184 165H200C199.819 162.559 197.699 160.668 195.143 160.667Z"
        fill="#3F3D56" />
    <path
        d="M265.143 160.667C264.291 160.667 263.453 160.882 262.716 161.29C261.185 159.965 258.983 159.628 257.097 160.431C255.212 161.233 253.997 163.025 254 165H270C269.819 162.559 267.699 160.668 265.143 160.667Z"
        fill="#3F3D56" />
    <path
        d="M298.143 160.667C297.291 160.667 296.453 160.882 295.716 161.29C294.185 159.965 291.983 159.628 290.097 160.431C288.212 161.233 286.997 163.025 287 165H303C302.819 162.559 300.699 160.668 298.143 160.667Z"
        fill="#3F3D56" />
    <path d="M44 142H38V147.493H40.7814V166H41.5314V147.493H44V142Z" fill="#3F3D56" />
    <rect x="15" y="156" width="21" height="1" fill="#3F3D56" />
    <rect x="15" y="154" width="21" height="1" fill="#3F3D56" />
    <rect x="15" y="152" width="21" height="1" fill="#3F3D56" />
    <defs>
        <linearGradient id="paint0_linear_0_8305" x1="105" y1="165" x2="105" y2="80" gradientUnits="userSpaceOnUse">
            <stop stop-color="#F4F4F4" />
            <stop offset="1" stop-color="#E6E6E6" />
        </linearGradient>
    </defs>
</svg>