<svg width="334" height="170" viewBox="0 0 334 170" fill="none" xmlns="http://www.w3.org/2000/svg">
    <ellipse cx="71.5" cy="130.5" rx="11.5" ry="23.5" fill="#E6E6E6" />
    <path
        d="M73.0896 169C68.4116 141.088 73.0425 113.277 73.0898 113L73.9998 113.153C73.9527 113.429 69.3484 141.094 74 168.849L73.0896 169Z"
        fill="#3F3D56" />
    <path d="M71.5569 131.064L82.0073 125.473L82.4381 126.279L71.9877 131.869L71.5569 131.064Z" fill="#3F3D56" />
    <path d="M60.5274 129.079L60.9584 128.274L71.4075 133.867L70.9765 134.673L60.5274 129.079Z" fill="#3F3D56" />
    <rect x="286" y="1" width="19" height="66" fill="#E6E6E6" />
    <path d="M318 54.8508L271.846 0L179.2 0.846212L123 55.5292L124.136 56.2586H123.73V170H317.875V56.2586L318 54.8508Z"
        fill="#F3F3F3" />
    <path d="M271.303 0L214 67.5761V170H317V54.721L271.303 0Z" fill="#C6D8D3" />
    <rect x="255" y="113" width="21" height="19" fill="#3F3D56" />
    <rect x="255" y="81" width="21" height="18" fill="#3F3D56" />
    <rect x="255" y="113" width="21" height="19" fill="white" />
    <rect x="255" y="81" width="21" height="18" fill="white" />
    <path d="M199 166C199 166 199.465 157.043 209 158.084L199 166Z" fill="#E6E6E6" />
    <circle cx="196.5" cy="152.5" r="4.5" fill="#C6D8D3" />
    <rect x="196" y="161" width="1" height="9" fill="#E6E6E6" />
    <ellipse cx="44.5" cy="94" rx="22.5" ry="46" fill="#C6D8D3" />
    <path
        d="M47.0881 170C37.9361 115.671 46.9958 61.5404 47.0884 61L47.9998 61.1527C47.9075 61.6918 38.8744 115.677 48 169.85L47.0881 170Z"
        fill="#3F3D56" />
    <path d="M43.7316 95.5745L64.1718 84.64L64.6026 85.4454L44.1624 96.3799L43.7316 95.5745Z" fill="#3F3D56" />
    <path d="M22.1597 90.9229L22.5907 90.1175L43.0278 101.058L42.5968 101.863L22.1597 90.9229Z" fill="#3F3D56" />
    <ellipse cx="98" cy="66" rx="31" ry="63" fill="#C6D8D3" />
    <path
        d="M101.159 170C89.61 95.7338 101.042 21.7387 101.159 21L102 21.1526C101.883 21.89 90.4755 95.7396 102 169.85L101.159 170Z"
        fill="#3F3D56" />
    <path d="M97.2228 68.4766L125.193 53.5136L125.624 54.3191L97.6535 69.282L97.2228 68.4766Z" fill="#3F3D56" />
    <path d="M67.7031 61.8146L68.1341 61.0093L96.1009 75.9796L95.6699 76.785L67.7031 61.8146Z" fill="#3F3D56" />
    <rect y="169" width="334" height="1" fill="#E6E6E6" />
    <rect x="162" y="108" width="21" height="19" fill="#3F3D56" />
    <rect x="162" y="76" width="21" height="18" fill="#3F3D56" />
    <rect x="162" y="108" width="21" height="19" fill="#E6E6E6" />
    <rect x="162" y="76" width="21" height="18" fill="#E6E6E6" />
</svg>