<svg width="336" height="216" viewBox="0 0 336 216" fill="none" xmlns="http://www.w3.org/2000/svg">
    <rect x="315" y="132" width="9" height="32" fill="#3F3D56" />
    <path d="M331 158.841L306.826 130H259.761L231 157.802L231.581 158.172H231.374V216H330.731V158.172L331 158.841Z"
        fill="#C6D8D3" />
    <path
        d="M313.464 118.852C313.463 118.893 313.461 118.933 313.461 118.975C313.984 120.56 314.65 122.094 315.451 123.558C315.059 124.74 314.863 125.978 314.869 127.223C314.869 131.518 317.077 135 319.799 135C322.522 135 324.729 131.518 324.729 127.223C324.731 126.293 324.624 125.365 324.408 124.46C326.147 122.572 326.396 119.743 325.014 117.577C326.543 118.918 328.673 119.33 330.588 118.654C332.504 117.979 333.909 116.321 334.267 114.314C334.624 112.308 333.879 110.264 332.315 108.964C334.994 107.971 336.51 105.124 335.843 102.336C335.177 99.5488 332.538 97.7027 329.702 98.0396C326.866 98.3764 324.73 100.79 324.729 103.656C324.729 103.739 324.732 103.821 324.736 103.903C323.17 103.423 321.474 103.65 320.089 104.524C318.703 105.398 317.764 106.834 317.516 108.458C315.596 107.311 313.182 107.412 311.363 108.714C309.544 110.017 308.663 112.275 309.118 114.471C309.574 116.667 311.278 118.386 313.464 118.852H313.464Z"
        fill="#C6D8D3" />
    <path d="M306.93 130L278 164.186V216H330V157.682L306.93 130Z" fill="#B7CDC7" />
    <rect x="300" y="188" width="10" height="9" fill="#3F3D56" />
    <rect x="300" y="172" width="10" height="9" fill="#3F3D56" />
    <rect x="300" y="188" width="10" height="9" fill="white" />
    <rect x="300" y="188" width="10" height="9" fill="#C6D8D3" fill-opacity="0.3" />
    <rect x="300" y="172" width="10" height="9" fill="white" />
    <rect x="300" y="172" width="10" height="9" fill="#C6D8D3" fill-opacity="0.3" />
    <path d="M133.769 62H50.7399L0 111.784L1.025 112.448H0.658519V216H175.942V112.448L176 112.663L133.769 62Z"
        fill="#C6D8D3" />
    <path
        d="M124.986 4.90152L131 0.0676947C126.328 -0.450299 124.409 2.11031 123.623 4.13705C119.973 2.61395 116 4.61004 116 4.61004L128.032 9C127.425 7.37059 126.369 5.94886 124.986 4.90152Z"
        fill="#3F3D56" />
    <path
        d="M228.986 17.9015L235 13.0677C230.328 12.5497 228.409 15.1103 227.623 17.137C223.973 15.614 220 17.61 220 17.61L232.032 22C231.425 20.3706 230.369 18.9489 228.986 17.9015Z"
        fill="#3F3D56" />
    <path
        d="M202.986 51.9015L209 47.0677C204.328 46.5497 202.409 49.1103 201.623 51.137C197.973 49.614 194 51.61 194 51.61L206.032 56C205.425 54.3706 204.369 52.9489 202.986 51.9015Z"
        fill="#3F3D56" />
    <rect x="142" y="57" width="9" height="32" fill="#3F3D56" />
    <rect x="239" y="98" width="9" height="32" fill="#3F3D56" />
    <rect x="239" y="95" width="9" height="32" fill="#3F3D56" />
    <path d="M262 136.795L229.316 98H165.189L126 136.147L126.791 136.655H126.509V216H261.889V136.655L262 136.795Z"
        fill="#C6D8D3" />
    <path d="M230.612 97L190 144.303V216H263V135.305L230.612 97Z" fill="#B7CDC7" />
    <path d="M134.739 62L83 123.216V216H176V111.571L134.739 62Z" fill="#B7CDC7" />
    <path d="M41 215C41 215 41.2326 209.402 46 210.053L41 215Z" fill="#E6E6E6" />
    <circle cx="39.5" cy="207.5" r="2.5" fill="#2AC084" />
    <rect x="38" y="211" width="1" height="5" fill="#E6E6E6" />
    <path d="M62 215C62 215 62.2326 209.402 67 210.053L62 215Z" fill="#E6E6E6" />
    <circle cx="59.5" cy="207.5" r="2.5" fill="#2AC084" />
    <rect x="59" y="211" width="1" height="5" fill="#E6E6E6" />
    <path d="M182 215C182 215 182.233 209.402 187 210.053L182 215Z" fill="#E6E6E6" />
    <circle cx="180.5" cy="207.5" r="2.5" fill="#2AC084" />
    <rect x="180" y="211" width="1" height="5" fill="#E6E6E6" />
    <path d="M271 215C271 215 271.233 209.402 276 210.053L271 215Z" fill="#E6E6E6" />
    <circle cx="270.5" cy="207.5" r="2.5" fill="#2AC084" />
    <rect x="270" y="211" width="1" height="5" fill="#E6E6E6" />
    <path d="M12 215C12 215 12.2326 209.402 17 210.053L12 215Z" fill="#E6E6E6" />
    <circle cx="10.5" cy="207.5" r="2.5" fill="#2AC084" />
    <rect x="11" y="211" width="1" height="5" fill="#E6E6E6" />
    <path
        d="M236.125 79.7965C236.124 79.8454 236.122 79.8938 236.122 79.9429C236.12 81.7602 236.828 83.5005 238.083 84.765C238.18 84.9802 238.288 85.1899 238.406 85.3933C237.957 86.7985 237.731 88.2708 237.739 89.7517C237.739 94.8594 240.273 99 243.399 99C246.525 99 249.06 94.8594 249.06 89.7517C249.062 88.6453 248.938 87.5425 248.691 86.4664C250.687 84.2204 250.973 80.8562 249.387 78.2808C251.142 79.8756 253.587 80.365 255.787 79.5617C257.986 78.7584 259.6 76.7867 260.01 74.4008C260.42 72.0149 259.564 69.584 257.769 68.0378C260.845 66.8575 262.586 63.4714 261.82 60.1566C261.055 56.8418 258.025 54.6465 254.769 55.0471C251.513 55.4477 249.06 58.3175 249.06 61.7265C249.06 61.825 249.063 61.9227 249.067 62.0201C247.27 61.4493 245.322 61.7187 243.731 62.7584C242.14 63.7981 241.062 65.5054 240.777 67.4368C238.573 66.0729 235.801 66.1924 233.713 67.7413C231.624 69.2903 230.613 71.976 231.136 74.5873C231.658 77.1987 233.616 79.2422 236.125 79.7965V79.7965Z"
        fill="#C6D8D3" />
    <path
        d="M37 105.387L29.0482 116.967L28.279 94L27.328 127.91L20 117.238L27.2622 130.254L24.857 216H32.3635L29.1323 119.487L37 105.387Z"
        fill="white" />
    <path
        d="M37 105.387L29.0482 116.967L28.279 94L27.328 127.91L20 117.238L27.2622 130.254L24.857 216H32.3635L29.1323 119.487L37 105.387Z"
        fill="#C6D8D3" fill-opacity="0.3" />
    <path
        d="M138.117 38.7414C138.116 38.798 138.113 38.8542 138.113 38.9111C138.111 41.0175 138.956 43.0346 140.454 44.5004C140.57 44.7498 140.699 44.9929 140.84 45.2285C140.303 46.8573 140.034 48.5638 140.043 50.2804C140.043 56.2006 143.068 61 146.799 61C150.53 61 153.555 56.2007 153.555 50.2804C153.558 48.9979 153.41 47.7197 153.115 46.4724C155.497 43.8691 155.839 39.9697 153.946 36.9846C156.041 38.8325 158.959 39.3992 161.583 38.4681C164.208 37.5369 166.134 35.2519 166.624 32.4868C167.114 29.7218 166.092 26.9043 163.95 25.112C167.622 23.744 169.699 19.8191 168.785 15.9769C167.872 12.1348 164.256 9.59023 160.37 10.0546C156.483 10.5189 153.556 13.8453 153.555 17.7966C153.555 17.9108 153.559 18.024 153.564 18.1369C151.418 17.4753 149.094 17.7876 147.195 18.9927C145.296 20.1978 144.01 22.1768 143.67 24.4154C141.038 22.8345 137.73 22.973 135.238 24.7684C132.745 26.5637 131.538 29.6767 132.162 32.7035C132.786 35.7303 135.122 38.099 138.117 38.7414Z"
        fill="#C6D8D3" />
    <rect x="95" y="134" width="19" height="20" fill="#3F3D56" />
    <rect x="95" y="162" width="19" height="20" fill="#3F3D56" />
    <rect x="95" y="134" width="19" height="20" fill="white" />
    <rect x="95" y="134" width="19" height="20" fill="#C6D8D3" fill-opacity="0.3" />
    <rect x="95" y="162" width="19" height="20" fill="white" />
    <rect x="95" y="162" width="19" height="20" fill="#C6D8D3" fill-opacity="0.3" />
    <rect x="122" y="134" width="19" height="20" fill="#3F3D56" />
    <rect x="122" y="162" width="19" height="20" fill="#3F3D56" />
    <rect x="122" y="134" width="19" height="20" fill="white" />
    <rect x="122" y="134" width="19" height="20" fill="#C6D8D3" fill-opacity="0.3" />
    <rect x="122" y="162" width="19" height="20" fill="white" />
    <rect x="122" y="162" width="19" height="20" fill="#C6D8D3" fill-opacity="0.3" />
    <rect x="147" y="134" width="19" height="20" fill="#3F3D56" />
    <rect x="147" y="162" width="19" height="20" fill="#3F3D56" />
    <rect x="147" y="134" width="19" height="20" fill="white" />
    <rect x="147" y="134" width="19" height="20" fill="#C6D8D3" fill-opacity="0.3" />
    <rect x="147" y="162" width="19" height="20" fill="white" />
    <rect x="147" y="162" width="19" height="20" fill="#C6D8D3" fill-opacity="0.3" />
    <rect x="209" y="174" width="15" height="15" fill="#3F3D56" />
    <rect x="209" y="153" width="15" height="15" fill="#3F3D56" />
    <rect x="209" y="174" width="15" height="15" fill="white" />
    <rect x="209" y="174" width="15" height="15" fill="#C6D8D3" fill-opacity="0.3" />
    <rect x="209" y="153" width="15" height="15" fill="white" />
    <rect x="209" y="153" width="15" height="15" fill="#C6D8D3" fill-opacity="0.3" />
    <rect x="230" y="174" width="15" height="15" fill="#3F3D56" />
    <rect x="230" y="153" width="15" height="15" fill="#3F3D56" />
    <rect x="230" y="174" width="15" height="15" fill="white" />
    <rect x="230" y="174" width="15" height="15" fill="#C6D8D3" fill-opacity="0.3" />
    <rect x="230" y="153" width="15" height="15" fill="white" />
    <rect x="230" y="153" width="15" height="15" fill="#C6D8D3" fill-opacity="0.3" />
</svg>