<svg width="704" height="326" viewBox="0 0 704 326" fill="none" xmlns="http://www.w3.org/2000/svg">
<rect x="612" y="131" width="22" height="75" fill="#F2F2F2"/>
<path d="M649 192.24L595.981 129L489.559 129.975L425 193.022L426.305 193.863H425.838V325H648.858V193.863L649 192.24Z" fill="#F2F2F2"/>
<path d="M595.204 129L529 206.911V325H648V192.09L595.204 129Z" fill="#E6E6E6"/>
<rect x="578" y="260" width="24" height="22" fill="#3F3D56"/>
<rect x="578" y="223" width="24" height="20" fill="#3F3D56"/>
<rect x="578" y="260" width="24" height="22" fill="white"/>
<rect x="578" y="223" width="24" height="20" fill="white"/>
<rect x="469" y="255" width="24" height="22" fill="white"/>
<rect x="469" y="218" width="24" height="20" fill="white"/>
<rect x="440" y="131" width="22" height="75" fill="#F2F2F2"/>
<path d="M476 192.24L422.981 129L316.559 129.975L252 193.022L253.305 193.863H252.838V325H475.858V193.863L476 192.24Z" fill="#F2F2F2"/>
<path d="M423.204 129L357 206.911V325H476V192.09L423.204 129Z" fill="#E6E6E6"/>
<rect x="406" y="260" width="24" height="22" fill="#3F3D56"/>
<rect x="406" y="223" width="24" height="20" fill="#3F3D56"/>
<rect x="406" y="260" width="24" height="22" fill="white"/>
<rect x="406" y="223" width="24" height="20" fill="white"/>
<rect x="297" y="255" width="24" height="22" fill="white"/>
<rect x="297" y="218" width="24" height="20" fill="white"/>
<rect x="257" y="66" width="29" height="101" fill="#F2F2F2"/>
<path d="M306 147.212L235.23 63L93.1736 64.2985L7 148.254L8.74079 149.373H8.11913V324H305.809V149.373L306 147.212Z" fill="#F2F2F2"/>
<path d="M235.014 63L146 166.749V324H306V147.013L235.014 63Z" fill="#E6E6E6"/>
<rect x="211" y="238" width="32" height="29" fill="#3F3D56"/>
<rect x="211" y="189" width="32" height="27" fill="#3F3D56"/>
<rect x="211" y="238" width="32" height="29" fill="white"/>
<rect x="211" y="189" width="32" height="27" fill="white"/>
<rect x="65" y="229" width="32" height="29" fill="white"/>
<rect x="65" y="182" width="32" height="27" fill="white"/>
<ellipse cx="92" cy="255.5" rx="21" ry="43.5" fill="#3F3D56"/>
<path d="M93.1792 325C83.8232 274.659 93.085 224.5 93.1797 224L94.9996 224.276C94.9054 224.774 85.6967 274.67 95 324.728L93.1792 325Z" fill="#FC6902"/>
<path d="M91.2666 255.725L110.306 245.552L111.091 247.017L92.0514 257.191L91.2666 255.725Z" fill="#FC6902"/>
<path d="M71.1714 252.114L71.9566 250.648L90.9941 260.827L90.2089 262.293L71.1714 252.114Z" fill="#FC6902"/>
<ellipse cx="41.5" cy="188.5" rx="41.5" ry="83.5" fill="#FC6902"/>
<path d="M45.1763 326C26.8723 226.813 44.9917 127.987 45.1767 127L46.9995 127.279C46.8149 128.263 28.7488 226.823 47 325.726L45.1763 326Z" fill="#3F3D56"/>
<path d="M40.5713 191.14L77.8117 171.241L78.5965 172.707L41.3561 192.606L40.5713 191.14Z" fill="#3F3D56"/>
<path d="M1.26855 182.675L2.05379 181.209L39.2886 201.119L38.5034 202.584L1.26855 182.675Z" fill="#3F3D56"/>
<ellipse cx="139" cy="138" rx="56" ry="115" fill="#FC6902"/>
<path d="M145.318 326C122.22 191.424 145.084 57.3385 145.318 56L147 56.2766C146.766 57.6127 123.951 191.434 147 325.728L145.318 326Z" fill="#3F3D56"/>
<path d="M138.027 141.826L188.988 114.595L189.773 116.061L138.812 143.292L138.027 141.826Z" fill="#3F3D56"/>
<path d="M84.2451 129.702L85.0303 128.237L135.984 155.48L135.198 156.946L84.2451 129.702Z" fill="#3F3D56"/>
<ellipse cx="612" cy="255.5" rx="21" ry="43.5" fill="#3F3D56"/>
<path d="M610.821 325C620.177 274.659 610.915 224.5 610.82 224L609 224.276C609.095 224.774 618.303 274.67 609 324.728L610.821 325Z" fill="#FC6902"/>
<path d="M592.806 247.017L593.591 245.552L612.63 255.725L611.846 257.191L592.806 247.017Z" fill="#FC6902"/>
<path d="M612.903 260.827L631.94 250.648L632.726 252.113L613.688 262.293L612.903 260.827Z" fill="#FC6902"/>
<ellipse cx="662.5" cy="188.5" rx="41.5" ry="83.5" fill="#FC6902"/>
<path d="M658.824 326C677.128 226.813 659.008 127.987 658.823 127L657 127.279C657.185 128.263 675.251 226.823 657 325.726L658.824 326Z" fill="#3F3D56"/>
<path d="M625.301 172.707L626.086 171.241L663.326 191.14L662.541 192.606L625.301 172.707Z" fill="#3F3D56"/>
<path d="M664.608 201.119L701.843 181.209L702.628 182.675L665.394 202.584L664.608 201.119Z" fill="#3F3D56"/>
<ellipse cx="565" cy="138" rx="56" ry="115" fill="#FC6902"/>
<path d="M558.682 326C581.78 191.424 558.916 57.3385 558.682 56L557 56.2766C557.234 57.6127 580.049 191.434 557 325.728L558.682 326Z" fill="#3F3D56"/>
<path d="M514.124 116.061L514.909 114.595L565.869 141.826L565.084 143.292L514.124 116.061Z" fill="#3F3D56"/>
<path d="M567.914 155.48L618.867 128.236L619.652 129.702L568.699 156.946L567.914 155.48Z" fill="#3F3D56"/>
<path d="M408.184 73.4461L415 68.0752C409.705 67.4997 407.53 70.3448 406.639 72.5967C402.503 70.9044 398 73.1223 398 73.1223L411.637 78C410.949 76.1895 409.751 74.6098 408.184 73.4461Z" fill="#3F3D56"/>
<path d="M246.184 25.4461L253 20.0752C247.705 19.4997 245.53 22.3448 244.639 24.5967C240.503 22.9044 236 25.1223 236 25.1223L249.637 30C248.949 28.1895 247.751 26.6098 246.184 25.4461Z" fill="#3F3D56"/>
<path d="M510.184 5.44614L517 0.0752166C511.705 -0.500333 509.53 2.34478 508.639 4.59672C504.503 2.90436 500 5.12227 500 5.12227L513.637 10C512.949 8.18954 511.751 6.60985 510.184 5.44614Z" fill="#3F3D56"/>
<path d="M523.678 315.467C521.867 315.467 520.089 315.94 518.521 316.838C515.269 313.923 510.588 313.182 506.581 314.948C502.575 316.714 499.995 320.654 500 325H534C533.615 319.631 529.109 315.469 523.678 315.467Z" fill="#3F3D56"/>
<path d="M185.678 315.467C183.867 315.467 182.089 315.94 180.521 316.838C177.269 313.923 172.588 313.182 168.581 314.948C164.575 316.714 161.995 320.654 162 325H196C195.615 319.631 191.109 315.469 185.678 315.467Z" fill="#3F3D56"/>
<path d="M358.678 315.467C356.867 315.467 355.089 315.94 353.521 316.838C350.269 313.923 345.588 313.182 341.581 314.948C337.575 316.714 334.995 320.654 335 325H369C368.615 319.631 364.109 315.469 358.678 315.467Z" fill="#3F3D56"/>
<path d="M324 292H227V295.047H242.128V324H245.257V295.047H304.178V324H307.308V295.047H324V292Z" fill="#3F3D56"/>
<rect x="227" y="284" width="97" height="2" fill="#3F3D56"/>
<rect x="227" y="275" width="97" height="2" fill="#3F3D56"/>
<rect x="227" y="268" width="97" height="2" fill="#3F3D56"/>
<path d="M473 292H376V295.047H391.128V324H394.257V295.047H453.178V324H456.308V295.047H473V292Z" fill="#3F3D56"/>
<rect x="376" y="284" width="97" height="2" fill="#3F3D56"/>
<rect x="376" y="275" width="97" height="2" fill="#3F3D56"/>
<rect x="376" y="268" width="97" height="2" fill="#3F3D56"/>
</svg>
